/* XPM */
static char *magick[] = {
/* columns rows colors chars-per-pixel */
"116 39 256 2",
"   c Gray100",
".  c Gray97",
"X  c #efefef",
"o  c #e7e7e7",
"O  c Gray84",
"+  c #cecece",
"@  c #c6c6c6",
"#  c Gray74",
"$  c Gray68",
"%  c Gray58",
"&  c Gray55",
"*  c #848484",
"=  c #7b7b7b",
"-  c Gray45",
";  c Gray42",
":  c #5a5a5a",
">  c Gray32",
",  c Gray29",
"<  c Gray26",
"1  c #393939",
"2  c #313131",
"3  c Gray16",
"4  c Gray13",
"5  c #181818",
"6  c #101010",
"7  c Gray3",
"8  c #fff7f7",
"9  c #f7efef",
"0  c #efe7e7",
"q  c #e7dede",
"w  c #ded6d6",
"e  c #cec6c6",
"r  c #bdb5b5",
"t  c #b5adad",
"y  c #ada5a5",
"u  c #a59c9c",
"i  c #948c8c",
"p  c #ffefef",
"a  c #f7e7e7",
"s  c #847b7b",
"d  c #736b6b",
"f  c #efdede",
"g  c #e7d6d6",
"h  c #decece",
"j  c #d6c6c6",
"k  c #6b6363",
"l  c #cebdbd",
"z  c #bdadad",
"x  c #b5a5a5",
"c  c #5a5252",
"v  c #635a5a",
"b  c #524a4a",
"n  c #f7dede",
"m  c #ad9c9c",
"M  c #efd6d6",
"N  c #a59494",
"B  c #e7cece",
"V  c #948484",
"C  c #4a4242",
"Z  c #847373",
"A  c #7b6b6b",
"S  c #f7d6d6",
"D  c #423939",
"F  c #efcece",
"G  c #736363",
"H  c #393131",
"J  c #a58c8c",
"K  c #6b5a5a",
"L  c #efc6c6",
"P  c #947b7b",
"I  c #b59494",
"U  c #ad8c8c",
"Y  c #846b6b",
"T  c #7b6363",
"R  c #cea5a5",
"E  c #a58484",
"W  c #efbdbd",
"Q  c #deadad",
"!  c #b58c8c",
"~  c #4a3939",
"^  c #6b5252",
"/  c #efb5b5",
"(  c #e7adad",
")  c #bd8c8c",
"_  c #5a4242",
"`  c #392929",
"'  c #e7a5a5",
"]  c #ad7b7b",
"[  c #735252",
"{  c #e79c9c",
"}  c #312121",
"|  c #ad7373",
" . c #181010",
".. c #e79494",
"X. c #de8c8c",
"o. c #e78c8c",
"O. c #de8484",
"+. c #392121",
"@. c #de7373",
"#. c #d65a5a",
"$. c #ce4242",
"%. c #290808",
"&. c #080000",
"*. c #d65a52",
"=. c #ce524a",
"-. c #bd3931",
";. c #ce3931",
":. c #de8c84",
">. c #de847b",
",. c #e79c94",
"<. c #de948c",
"1. c #d68c84",
"2. c #ce4a39",
"3. c #ce4231",
"4. c #efbdb5",
"5. c #e7b5ad",
"6. c #efb5ad",
"7. c #e7ada5",
"8. c #bd8c84",
"9. c #d69c94",
"0. c #ce948c",
"q. c #e7a59c",
"w. c #ad7b73",
"e. c #bd847b",
"r. c #ad736b",
"t. c #deb5ad",
"y. c #c69c94",
"u. c #bd948c",
"i. c #efc6bd",
"p. c #cea59c",
"a. c #ad847b",
"s. c #e79c8c",
"d. c #de9484",
"f. c #f7d6ce",
"g. c #efcec6",
"h. c #d6b5ad",
"j. c #bd9c94",
"k. c #b5948c",
"l. c #8c6b63",
"z. c #e7a594",
"x. c #c6a59c",
"c. c #e7ad9c",
"v. c #f7ded6",
"b. c #d6bdb5",
"n. c #b59c94",
"m. c #a58c84",
"M. c #e7b5a5",
"N. c #735a52",
"B. c #291008",
"V. c #dec6bd",
"C. c #efc6b5",
"Z. c #8c7b73",
"A. c #6b5a52",
"S. c #63524a",
"D. c #ffefe7",
"F. c #9c8c84",
"G. c #7b6b63",
"H. c #efcebd",
"J. c #f7e7de",
"K. c #b5a59c",
"L. c #73635a",
"P. c #f7dece",
"I. c #efd6c6",
"U. c #947b6b",
"Y. c #efceb5",
"T. c #e7ded6",
"R. c #847b73",
"E. c #291808",
"W. c #211000",
"Q. c #f7efe7",
"!. c #d6cec6",
"~. c #bdb5ad",
"^. c #b5ada5",
"/. c #9c948c",
"(. c #f7e7d6",
"). c #efd6bd",
"_. c #393129",
"`. c #cec6bd",
"'. c #6b635a",
"]. c #efdec6",
"[. c #fff7e7",
"{. c #f7efde",
"}. c #292108",
"|. c #f7f7ef",
" X c #e7e7de",
".X c #bdbdb5",
"XX c #a5a59c",
"oX c #f7f7e7",
"OX c #6b6b63",
"+X c #52524a",
"@X c #f7f7de",
"#X c #4a4a42",
"$X c #393931",
"%X c #181810",
"&X c #080800",
"*X c #182142",
"=X c #6b6b73",
"-X c #393942",
";X c #313152",
":X c #080810",
">X c #101039",
",X c #312942",
"<X c #f7efff",
"1X c #f7e7ff",
"2X c #fff7ff",
"3X c #ada5ad",
"4X c #9c949c",
"5X c #f7e7f7",
"6X c #f7def7",
"7X c #4a424a",
"8X c #f7d6f7",
"9X c #efc6e7",
"0X c #f7d6ef",
"qX c #f7deef",
"wX c #f7cee7",
"eX c #de6bad",
"rX c #8c7b84",
"tX c #6b5a63",
"yX c #f7d6e7",
"uX c #f7cede",
"iX c #f7dee7",
"pX c #ffe7ef",
"aX c #efbdce",
"sX c #ceb5bd",
"dX c #e78ca5",
"fX c #de849c",
"gX c #f7d6de",
"hX c #efced6",
"jX c #e7a5b5",
"kX c #523139",
"lX c #de7b94",
"zX c #290810",
"xX c #e79cad",
"cX c #de738c",
"vX c #f7ced6",
"bX c #efc6ce",
"nX c #b56373",
"mX c #efbdc6",
"MX c #e78c9c",
"NX c #de8494",
"BX c #f7c6ce",
"VX c #ce314a",
"CX c #efb5bd",
"ZX c #e7adb5",
"AX c #efadb5",
"SX c #e7a5ad",
"DX c #e79ca5",
"FX c #de6b7b",
"GX c #e7949c",
"HX c #de8c94",
"JX c #e78c94",
"KX c #de848c",
"LX c #de7b84",
"PX c #d65a63",
"IX c #ce3139",
"UX c Gray0",
/* pixels */
"                              @Xi.                                                    8 p 8 p p p     [.oX@X@X[.oX[.@XoXoX[.oX[.oX[.    p @X@X@XoX@XoX@X[.I.[.oXp p p 8 8 8 eXeX                                                      &.",
"8                           8 4.@X                                                    8 |.|.|.|.    8 oX@X{.{.oX@XQ.@X{.oXoXoXoXoXp   8 @XoX{.{.@X{.@XQ.oX).oXoXoX|.p |.8 |.eXZX                                                    &.&X",
"p p Q.Q.v.v.v.v.a J.P.P.P.ZXPXFXF P.v.v.v.v.].P.(.(.(.J.(.i.(.J.oXQ.{.J.v.    F g.i.J.C.C.C.C.5.iXyXM.7.7.{ ' 7.7.7.7.7.7.7.7.4.L hXbX( 7.7.7.q.c.7.7.7.7.X.GX5.6.C.5.7.7.7.VXL F P.v.(.J.P.P.J.(.(.J.J.Q.{.{.J.J.J.(.(.v.a a P.P.v.&X&X",
"p |.J.9 P.(.M P.J.a F P.dXSXF Q.{.M M (.P.M P.P.(.(.J.f P.i.{.Q.{.{.J.(..   qXg.H.i.iXg.W 4.5.4.5Xg.( 7.7.DX' 5.7.M.5.7.7.4.L hXW 5.7.5.7.c.7.7.7.( 7.7.5.{ O.7.q.,.HX' 5.i.IXKX].F P.M (.P.(.(.(.J.J.{.9 Q.a J.{.(.f (.P.a a P.F P.&.&.",
"p |.8                       r O 8 (.(.(.(.(.P.].M (.f (.g.F {.{.{.{.J.f   2XI.g.i.i.g.gX4.4.5.hXqX( 7.7.7.{ 7.7.7.7.7.7.5.L W 5.5.7.7.7.7.7.7.7.M.7.M.7.' FX3.HX{ ( ZXH.i.g.{ IXF F P.(.(.P.P.(.f (.f (.|.J.J.{.a Q.Q.J.f Q.J.F ].I.&.&X",
"p |.8 ; UXUXUXUXUXUXUXUXz   UXOX8 (.(.(.f (.(.P.(.(.J.(.C.M {.{.J.f {.    a g.g.H.4.4.0 4.4.4.iXf 7.7.7.M.dXM.7.5.( 7.5.4.ZX7.7.7.7.7.7.( 7.7.M.7.M...@.$.=.O.' 5.4.C.C.V.i.g.VXF P.F P.M P.T.(.(.{.(.Q.9 (.J.(.(.M J.J.Q.n (.I.).I.&X&X",
"p |.8 $ ; ; ; UX5 OX; OXO   UXOXq V M (.(.(.f P.f f {.f g.J.{.f {.p |.<X8 F g.g.i.V.4.iXL 5.F 6XL 7.7.( ( { ' M.5.4.W W W M.7.7.7.7.7.7.7.7.M.( M.*.3.FXGX5.7.' 5.4.4.4.i.i.g.-.{ P.F P.P.].P.(.(.J.Q.9 Q.(.(.M M P.M J.a Q.n I.F P.&X&.",
"p 8       +   UX< X @ # #   UX; # $X(.(.(.(.f (.(.J.J.(.J.{.Q.p <X8 9 J.n v.I.g.H.BXqX5Xf M 6X0XCX/ ZXW / ( W hXhXF W 5.M.7.7.7.7.7.M.5.5.6.5.5.#.-.DX5.M.5.5.7.5.5.4.4.C.i.( xXGXM P.P.T.P.P.(.a 9 9 Q.v.(.M P.(.J.Q.a J.M I.I.F P.&.&X",
"    8 J.f.'.  UX, # 7 $X$X  UX; # 1 (.f |.|.|.|.Q.|.9 Q.Q.8     8 |.Q.P.P.M F a 5X<X8 8 9 pX8 n V.S f.M g.g.S v.f.g.a Q.Q.a n i.7.5.f.qXD.9 9 4.=.{ 5.5.5.5.F J.p 9 9 9 n ZXbXS F Q.<X    |.. . . p Q.Q.9 Q.|.J.a a n F P.a Q.a J.P.UX&X",
"  8 P.F M P.  UXOX@ H v.v.  UX; `.1 J.8   r r f   r h 8   O s OX% h   9 P.I.  5X    w i K '.3Xf     ^.j D.qX!.t   2X!.- K i f   g.2X8 .Xk '.J a   C.5.5.i.p   w V K K u q     ~.j   ~.t r r r r r .Xr q O r   a v.F P.F (.. ~.0 Q.P.&.&X",
"oXoXP.P.P.P.  UX; # $XP.P.  UXOX# v 8   +XUX% .   UXOX. +XUX> d 5 UX%   Q.g.    9 b UXUXk k 5 UXZ   UXK Q.Q.K UX  #XUXb '.UXUXj   Q.5 5 k b UX .0 8 ' /   0 b UXUXtXK 5 UXZ   UXK   UXUXUXUXUXUXUXUX5 8 OXUX  a ].F I.F n 0 UXr Q.n &X6 ",
"[.oXF P.F P.  UXk @ H (.M   UX; # . |.> UXe   e   UX> 6 c     8   d UXXX  qX  9 5 5 l     .   u 6 d UX'.w q '.UXD D 8     0 4 UXw 5 F.      e 6 3   i.9 a 5 5 sX    .   u 6 d UXA.              & UX4X. > UX  A I.P.F P.(.0 UXt r t &X&.",
"p oXP.P.P.P.  UXk # H v.P.  UXOX5XO 5 UXw   & UX  UXUX2 . 9 < UX$   4 6       b UX0 8 * UXUXi . O UXUXK # e K UX4 o 9 D 4 o # UXUXG   B %XC 9 = UX@ l   b UX0 8 s UXUXi . O UXUXS.# H f.UX6 q # UX2   # < UX  UXv.F P.F M 0 UX$ s A &.&X",
"oXoXP.B F F   UX; `.H M ].  UXOX# 6 4 0   R.UXZ.  UXUX# q 7 < w Q.  % UXq + o UX/.  , 7 Y 4.M.F   % UX, @ + K UX$ q 3 } R gX  UXUXq q 7 _ -.v.g UX% y T.UX/.  C 7 Y i.i.F   u UX7X`.H F f.Q.  H UX|.o # c UX  UXv.F F P.(.0 UX$ * G &X&.",
"oX@XM P.P.v.  UX; # H P.I.  UX5 UX6 9   , UXV v.  UX5   -X3 (.M P.p .XUX@ @ 4XUX9 $ UX8.5.7.( AXD.9 UX1 # + '.UXO k  .9.c.7.  UX6   4 ~ q.KXM f UX% # rXUX9 t UXE H.i.H.g.J.9 UX-X# H F v.  r UXm   3 + OXUX  UXM P.P.M a X UXy * G.&.&.",
"oXoXP.F F M   UXk @ H I.).  UXUXUXo   1 7 K.P.P.  UX; . UXK.F P.F Q.r UXO # v UX  2 _ 5.5.M.7.7.bX  UXc # + K UX  3 l.7.' 7.  UXK . UXu.GXDXL 0 UXm @ c UX  2 kX/ i.g.g.g.H.  UX> `.H I.8 9 UXH 2X4XUX9 k UX  UX(.M a J.Q.0 UXy = G &.&.",
"[.{.F F P.F   UX; # H AXI.  UX5 UX4 + X `.P.F P.  UX- # 7 P.F P.I.a ~.UXO # v UX  > u.5.5.( / L n   UXv # + K UX  UX8.q.c.q.  UX'.# 7 ' MXDXi.q UXy # > UX  > y.W g.g.g.W 7.  UXv # H Q.  +XUX0 X 7 A.8 k UX  UX2X<X5XqX9 0 UXy * G &X&X",
"@X@XI.I.I.I.  UXOX@ 1   2X  UXd XX6 6 X   v.F P.  UX; @ H f.I.g.g.a ~.UXO # % UX# # 4.5.4.g.f F 9 f UX'.# + K UX  UXq.q.q.7.  UX'.@ +.DXfX' i.f UXm # & UX# # 4.ZXg.H.g.g.a f UX; `.b   r UX%   D 4 B 8 s UX  , 5XJ.J.v.a 0 UX# s - *X&X",
"{.{.g.g.g.I.  UXk # -X5XF   UX=XX O 6 7 X     5X  UX; # H I.g.I.I.a # UXO i 0 UX,   a S gXF / g.  Z UXK # + '.UX  UXq.q.q.z.  UX'.# ` fXDXM.i.f UXm & q UX,   n cXZXi.g.v.  s UXk # + 8 5 5   r UXk.n   # UX# `.I.F F I.8 r UXq - A &.&.",
"|.[.g.g.g.g.  UX; @ 1 I.I.  UXOX# . 0 6 6 +       UX; @ 1 qXa v.S 2X# UXO <   R.UX;   8 F i.a   j UXUXv # + K UX  UXq.q.z.q.  UXk # ` fX{ ( i. XUXN *   R.UX=X  iXM f.9   O UXUXv #   ; UXo . 1 R.F g.M 9 UX,   . P.J.8   H 5   -XY &.&.",
"              UX- # H g.g.  UXk @ c   0 6 UXe     UXk # H v.a qX9   # UXO 1 f   C UX, w     f Z UXi UX, `.+ K UX  UXq.q.q.'   UXk # ` NX7.7.i.f UXN s +   C UX, h     0 R.UX/.UX, . $ UX+Xf @ @ o 0 f Q.  y UX-X0     q b UXh . UXn.&.&.",
"(.|.F H.i.i.  UXk # _.g.i.  UXk # H L   0 2 UX#   UXk @ _.i.i.H.i.5X~.UXO D I 8   s UXUXUXUXUX5 l   UX-X# + '.UX  UXq.q.q.q.  UX'.@ } GX7.7.i.q UXN * L.8   s UXUXUXUXUX5 `.  UX< X 6 UXUXUXUXUXUXUXUXK p   u UXUXUXUXUX5 O   d 6 i.&.&.",
"@XP.i.V.C.C.  0 a @ ` i.H.  0 9 @ H 5.i.8 8 @ #   0 9 # H H.V.C.W 8 . f . < U 5.n   o u & u g   8   # q # + 9 f   UXq.q.q.c.  f qX# } { 7.7.i.  f 9 * N.4.J.  o u & XXT.  2X  # q q + 0 w # @ q q q T.o 0 T.  X u & y T.  . R.UXP C.&.&.",
"P.P.i.4.4.ZXg.g./ 3 _.4.W f.F n 3 _.Y.7.g.F b.v -Xn.f.2 _.i.W W C.qXg.g.F.7 U 6.5.4.M t = * = > UX7Xm.i.3 c i.W K UX7.q.c.' 4.W C.2 } q.7.7.( i.i.) 5 N.4.4.i.jXx = * = > UX, N a -Xk g., < < -X1 1 -X1 2 _.F J.t = * * b 6 7 P i.4.&.&.",
"(.@X5.4.5.5.6.5.{ ] j.4.4.4.H.g.k.j.i.4.4.i.i.t.k.U V.k.j.4.4.4.4.0 5.( y.8.Q 4.5.7.L W 0.l.[ N.E ( 7.7.a.u.6.q.8.] q.7.' 7.7.7.q.w.nX' 7.7.7.M.5.1.r.p.5.5.' LXjXp.U.L.L.m.H.S F k.K.h.N k.k.k.k.k.a.a.n.x.g.g.g.b.P d G m.t.BXH.4.UX&.",
"P.].4.5.5.5.5.5.' HX5.5.5.4.L i.4.W i.L L F i.i.i.i.4.4.W 4.4.W <X5XF M.5.7.5.L hXgXyXL 7.7.7.W hX4.7.7.7.7.5.7.7.q.q.c.q.q.' q.7.{ HXc.7.7.7.( 5.z.O.5./ 5.DXlX( 4.4.i.C.i.g.n g.H.i.H.i.H.i.H.i.i.M.6.g.g.F F v.M v.g.g.i.M 5X6X6X>X>X",
"].P.5.5.6.      <X5XiX5.M.5.i.        V.4.            4.          5XvXyX      0Xf       5.ZXuX8X9XhXuXyXgXhXL ZXq.c.q.q.q.z.q.z.q.<.X.7.5.4.W 4.4.4.M.5.5.5.DX{ 4.F V.4.4.i.M               i.V.i.i.C.i.g.g.f.F F g.L i.      5X4.4.&.&.",
"].].5.5.    W.  5Xf 5X5XqX4.5.  W.W.  4.    W.    W.  <X  W.W.  5.c.7.7.  W.    7.  W.  q.7.yXbXc.q.c.q.' 5.W W 7.z.<.9.z.9.z.9.z.X.,.q.7.7.7.M.5.7.7.mXL ' SX4.F v.BXn iXM S   W.W.  W.W.  i.C.i.F F f g.F g.g.H.i.H.    W.  qX4.5.&.&.",
"].].6.    W.W.                  W.W.  7.  W.    W.W.      W.W.        q.  W.W.      W.  7.                                                                        4.            W.W.                                    W.W.      5.&.&.",
").P.5X  W.W.W.W.W.    W.W.W.W.  W.W.  7.  W.  W.W.W.W.W.  W.W.  W.W.  7.  W.W.W.    W.  q.  W.W.W.W.    W.W.  W.W.    W.W.    W.W.W.W.    W.W.W.W.  W.W.    W.W.      W.W.W.W.  W.W.  W.W.    W.W.W.W.    W.W.  W.W.  W.W.W.W.W.  6.&.&.",
"    <X    }.W.      W.W.        }.W.      W.    }.W.      W.W.  W.    q.  W.}.W.W.  W.  7.        W.W.  W.W.W.  W.W.W.  W.W.        W.W.      W.W.  W.W.    W.W.    W.W.        }.W.  W.W.  W.W.    W.W.  W.W.W.  W.W.  }.W.      4.&.&.",
"    7.q.  W.W.  wX  W.W.  ,.,.  W.W.    W.      W.W.  7.  W.W.W.    q.q.  W.  W.W.W.W.      W.W.W.W.W.  W.W.    W.W.    W.W.  W.W.W.W.W.    W.W.    W.W.    W.W.    W.W.  C.SX  W.W.  W.W.  W.W.W.W.W.W.  W.W.    W.W.  W.W.  4.4.4.&.&.",
"J.Y.q.q.  W.W.  9X  W.W.  ,.HX  W.W.    W.  vX  W.W.  7.  W.}.W.W.  q.q.  W.    W.W.W.    W.W.    W.}.  W.}.    W.W.    W.}.W.W.    W.}.    W.E.    W.}.    W.}.    W.W.  ( DX  W.W.  W.}.  W.}.          W.}.    W.}.  W.W.  4.5.5.&.&.",
"Y.Y.z.9.  W.W.      W.W.        W.W.  W.    7.  W.W.      W.W.  W.    7.  W.      W.W.    W.W.    W.W.  W.W.    W.W.    W.W.W.W.    W.W.  W.W.      W.W.  W.W.W.    W.W.        W.W.  W.W.  W.W.          W.W.    W.W.  W.W.      5.&.&.",
"Y.Y.q.q.    W.W.W.    W.W.W.W.  }.W.  W.  ( CX    W.W.W.  W.W.  W.W.  q.  W.  7.    W.      W.W.W.W.W.  W.W.    }.W.    W.W.  W.W.W.W.W.  W.W.W.W.    W.W.  }.W.      W.W.W.W.  }.W.  W.W.    W.W.W.W.W.  W.W.    W.W.    W.W.W.  6.&.&.",
"H.Y.q.z.,.                          W.    s.9.,.                      7.      7.7.      7.                                                                        q.                                                              5.&.&.",
"Y.Y.9.,.9.,.q.bX<.d.<.d.:.>.:.d.:.      o.9.s.,.9.q.q.q.q.' q.q.q.7.7.7.fX' 7.7.7.7.7.7.7.7.4.hXq.q.q.z.,.z.,.q.q.q.q.s.,.HXLXGX5.M.6.5.5./ / 7.7.5.6.5.4.4.=.O.7.AXi.i.i.i.H.CXW H.g.i.H.i.H.W H.i.i.i.4.i.i.L i.4.4.4.C.6Xi.6.5.5.&.&.",
"Y.C.,.z.,.9.q.mXq.<.:.d.d.>.>.>.@.;.:.d.<.o.<.,.z.,.q.q.q.q.z.q.q.q.7.7.fX' 7.7.7.7.7.7.7.7.ZXuXq.q.q.q.9.,.z.z.q.q.q.7.>.KXHXM.( 5.5.6.7.5.5.7.7.7.5.6.4.4.3.X.4.i.V.i.i.i.H./ W g.i.g.g.g.i.i.W i.C.V.4.4.i.W 4.4.4.5.L qXW 5.7.7.&.&.",
"Y.B.%.B.%.B.%.B.%.%.%.%.%.B.zXB.zXzX%.%.%.B.B.B.%.B.B.B.B.B.B.%.B.B.B.B.zXB.B.B.B.B.B.B.B.B.B.,XB.B.%.B.%.B.%.%.B.B.B.B.zXzX%.B.B.B.B.B.B.B.B.B.B.E.B.B.E.E.zXzXE.E.E.E.E.}.E.E.B.E.}.E.E.}.E.}.}.E.E.E.E.E.E.E.E.B.E.B.E.;XB.B.B.B.B.&."
};
